<mxfile host="app.diagrams.net" modified="2021-05-23T03:41:26.381Z" agent="5.0 (Windows NT 10.0; Win64; x64) AppleWebKit/537.36 (KHTML, like Gecko) Chrome/90.0.4430.212 Safari/537.36 Edg/90.0.818.66" etag="olbIKaxBIRDGFSlD8yYh" version="14.7.0" type="github">
  <diagram id="kgpKYQtTHZ0yAKxKKP6v" name="Page-1">
    <mxGraphModel dx="1898" dy="800" grid="1" gridSize="10" guides="1" tooltips="1" connect="1" arrows="1" fold="1" page="1" pageScale="1" pageWidth="850" pageHeight="1100" math="0" shadow="0">
      <root>
        <mxCell id="0" />
        <mxCell id="1" parent="0" />
        <mxCell id="3nuBFxr9cyL0pnOWT2aG-1" value="Pharmacist" style="shape=umlLifeline;perimeter=lifelinePerimeter;container=1;collapsible=0;recursiveResize=0;rounded=0;shadow=0;strokeWidth=1;" parent="1" vertex="1">
          <mxGeometry x="-160" y="80" width="100" height="580" as="geometry" />
        </mxCell>
        <mxCell id="3nuBFxr9cyL0pnOWT2aG-2" value="" style="points=[];perimeter=orthogonalPerimeter;rounded=0;shadow=0;strokeWidth=1;" parent="3nuBFxr9cyL0pnOWT2aG-1" vertex="1">
          <mxGeometry x="40" y="70" width="15" height="450" as="geometry" />
        </mxCell>
        <mxCell id="3nuBFxr9cyL0pnOWT2aG-3" value="start" style="verticalAlign=bottom;startArrow=oval;endArrow=block;startSize=8;shadow=0;strokeWidth=1;" parent="3nuBFxr9cyL0pnOWT2aG-1" target="3nuBFxr9cyL0pnOWT2aG-2" edge="1">
          <mxGeometry relative="1" as="geometry">
            <mxPoint x="-15" y="70" as="sourcePoint" />
          </mxGeometry>
        </mxCell>
        <mxCell id="3nuBFxr9cyL0pnOWT2aG-4" value="" style="points=[];perimeter=orthogonalPerimeter;rounded=0;shadow=0;strokeWidth=1;" parent="3nuBFxr9cyL0pnOWT2aG-1" vertex="1">
          <mxGeometry x="55" y="125" width="10" height="80" as="geometry" />
        </mxCell>
        <mxCell id="3nuBFxr9cyL0pnOWT2aG-5" value="Boxpicker" style="shape=umlLifeline;perimeter=lifelinePerimeter;container=1;collapsible=0;recursiveResize=0;rounded=0;shadow=0;strokeWidth=1;" parent="1" vertex="1">
          <mxGeometry x="-30" y="80" width="100" height="300" as="geometry" />
        </mxCell>
        <mxCell id="3nuBFxr9cyL0pnOWT2aG-6" value="" style="points=[];perimeter=orthogonalPerimeter;rounded=0;shadow=0;strokeWidth=1;" parent="3nuBFxr9cyL0pnOWT2aG-5" vertex="1">
          <mxGeometry x="45" y="80" width="10" height="160" as="geometry" />
        </mxCell>
        <mxCell id="3nuBFxr9cyL0pnOWT2aG-8" value="Signon(ID,password,)" style="verticalAlign=bottom;endArrow=block;entryX=0;entryY=0;shadow=0;strokeWidth=1;" parent="1" source="3nuBFxr9cyL0pnOWT2aG-2" target="3nuBFxr9cyL0pnOWT2aG-6" edge="1">
          <mxGeometry relative="1" as="geometry">
            <mxPoint x="275" y="160" as="sourcePoint" />
          </mxGeometry>
        </mxCell>
        <mxCell id="99kKacBxsgLjMlLrP_GL-4" value="Customer" style="shape=umlLifeline;perimeter=lifelinePerimeter;container=1;collapsible=0;recursiveResize=0;rounded=0;shadow=0;strokeWidth=1;" parent="1" vertex="1">
          <mxGeometry x="100" y="80" width="100" height="300" as="geometry" />
        </mxCell>
        <mxCell id="99kKacBxsgLjMlLrP_GL-5" value="" style="points=[];perimeter=orthogonalPerimeter;rounded=0;shadow=0;strokeWidth=1;" parent="99kKacBxsgLjMlLrP_GL-4" vertex="1">
          <mxGeometry x="45" y="80" width="10" height="160" as="geometry" />
        </mxCell>
        <mxCell id="99kKacBxsgLjMlLrP_GL-6" value="supplier" style="shape=umlLifeline;perimeter=lifelinePerimeter;container=1;collapsible=0;recursiveResize=0;rounded=0;shadow=0;strokeWidth=1;" parent="1" vertex="1">
          <mxGeometry x="460" y="80" width="100" height="520" as="geometry" />
        </mxCell>
        <mxCell id="99kKacBxsgLjMlLrP_GL-7" value="" style="points=[];perimeter=orthogonalPerimeter;rounded=0;shadow=0;strokeWidth=1;" parent="99kKacBxsgLjMlLrP_GL-6" vertex="1">
          <mxGeometry x="45" y="80" width="10" height="350" as="geometry" />
        </mxCell>
        <mxCell id="99kKacBxsgLjMlLrP_GL-8" value="prescriptions" style="shape=umlLifeline;perimeter=lifelinePerimeter;container=1;collapsible=0;recursiveResize=0;rounded=0;shadow=0;strokeWidth=1;" parent="1" vertex="1">
          <mxGeometry x="220" y="80" width="100" height="300" as="geometry" />
        </mxCell>
        <mxCell id="99kKacBxsgLjMlLrP_GL-9" value="" style="points=[];perimeter=orthogonalPerimeter;rounded=0;shadow=0;strokeWidth=1;" parent="99kKacBxsgLjMlLrP_GL-8" vertex="1">
          <mxGeometry x="45" y="80" width="10" height="160" as="geometry" />
        </mxCell>
        <mxCell id="99kKacBxsgLjMlLrP_GL-2" value="POS" style="shape=umlLifeline;perimeter=lifelinePerimeter;container=1;collapsible=0;recursiveResize=0;rounded=0;shadow=0;strokeWidth=1;" parent="1" vertex="1">
          <mxGeometry x="340" y="80" width="100" height="450" as="geometry" />
        </mxCell>
        <mxCell id="99kKacBxsgLjMlLrP_GL-3" value="" style="points=[];perimeter=orthogonalPerimeter;rounded=0;shadow=0;strokeWidth=1;" parent="99kKacBxsgLjMlLrP_GL-2" vertex="1">
          <mxGeometry x="45" y="80" width="10" height="280" as="geometry" />
        </mxCell>
        <mxCell id="99kKacBxsgLjMlLrP_GL-10" value="givetheprescription()" style="endArrow=classic;html=1;verticalAlign=bottom;exitX=0.166;exitY=0.124;exitDx=0;exitDy=0;exitPerimeter=0;" parent="1" source="99kKacBxsgLjMlLrP_GL-5" target="3nuBFxr9cyL0pnOWT2aG-1" edge="1">
          <mxGeometry x="0.0136" y="-1" width="50" height="50" relative="1" as="geometry">
            <mxPoint x="110" y="300" as="sourcePoint" />
            <mxPoint x="-100" y="210" as="targetPoint" />
            <Array as="points">
              <mxPoint y="180" />
              <mxPoint x="-30" y="180" />
              <mxPoint x="-80" y="180" />
            </Array>
            <mxPoint as="offset" />
          </mxGeometry>
        </mxCell>
        <mxCell id="99kKacBxsgLjMlLrP_GL-11" value="scan(),query()" style="endArrow=classic;html=1;verticalAlign=bottom;entryX=0.5;entryY=0.875;entryDx=0;entryDy=0;entryPerimeter=0;" parent="1" source="3nuBFxr9cyL0pnOWT2aG-2" target="99kKacBxsgLjMlLrP_GL-9" edge="1">
          <mxGeometry width="50" height="50" relative="1" as="geometry">
            <mxPoint x="-101" y="300" as="sourcePoint" />
            <mxPoint x="250" y="300" as="targetPoint" />
            <Array as="points">
              <mxPoint x="70" y="300" />
            </Array>
          </mxGeometry>
        </mxCell>
        <mxCell id="99kKacBxsgLjMlLrP_GL-12" value="givetheprice()" style="endArrow=classic;html=1;verticalAlign=bottom;" parent="1" source="3nuBFxr9cyL0pnOWT2aG-2" target="99kKacBxsgLjMlLrP_GL-4" edge="1">
          <mxGeometry width="50" height="50" relative="1" as="geometry">
            <mxPoint x="-100" y="200" as="sourcePoint" />
            <mxPoint x="-20" y="330" as="targetPoint" />
            <Array as="points">
              <mxPoint x="-30" y="200" />
            </Array>
          </mxGeometry>
        </mxCell>
        <mxCell id="99kKacBxsgLjMlLrP_GL-13" value="" style="points=[];perimeter=orthogonalPerimeter;rounded=0;shadow=0;strokeWidth=1;" parent="1" vertex="1">
          <mxGeometry x="150" y="220" width="10" height="50" as="geometry" />
        </mxCell>
        <mxCell id="99kKacBxsgLjMlLrP_GL-16" value="confirmprice()" style="html=1;verticalAlign=bottom;endArrow=block;labelBackgroundColor=none;fontFamily=Verdana;fontSize=12;elbow=vertical;edgeStyle=orthogonalEdgeStyle;curved=1;entryX=1;entryY=0.58;entryDx=0;entryDy=0;entryPerimeter=0;exitX=0.938;exitY=0.307;exitDx=0;exitDy=0;exitPerimeter=0;" parent="1" source="99kKacBxsgLjMlLrP_GL-5" target="99kKacBxsgLjMlLrP_GL-13" edge="1">
          <mxGeometry x="-0.2097" relative="1" as="geometry">
            <mxPoint x="165.38" y="211.04" as="sourcePoint" />
            <mxPoint x="165" y="249" as="targetPoint" />
            <Array as="points">
              <mxPoint x="154" y="211" />
              <mxPoint x="210" y="211" />
              <mxPoint x="210" y="249" />
            </Array>
            <mxPoint as="offset" />
          </mxGeometry>
        </mxCell>
        <mxCell id="3IAse8bKkGqNGghXpZyU-1" value="setup()" style="endArrow=classic;html=1;verticalAlign=bottom;" edge="1" parent="1" source="3nuBFxr9cyL0pnOWT2aG-2">
          <mxGeometry width="50" height="50" relative="1" as="geometry">
            <mxPoint x="-50" y="400" as="sourcePoint" />
            <mxPoint x="390" y="400" as="targetPoint" />
          </mxGeometry>
        </mxCell>
      </root>
    </mxGraphModel>
  </diagram>
</mxfile>
